<?xml version='1.0' encoding='iso-8859-1'?>
<svg version="1.1" xmlns="http://www.w3.org/2000/svg" viewBox="0 0 137.145 137.145" xmlns:xlink="http://www.w3.org/1999/xlink" enable-background="new 0 0 137.145 137.145">
  <g>
    <g>
      <path d="m54.858,54.859l13.714-20.572h-13.714l-13.714,20.572h13.714zm-27.429-20.572v20.572l13.714-20.572h-13.714zm54.858,20.572l13.714-20.572h-13.714l-13.714,20.572h13.714zm-54.858,54.858h82.286v-48h-82.286v48zm6.857-41.144h68.572v34.286h-68.572v-34.286zm75.429-68.573h-82.286c-15.148,0-27.429,12.281-27.429,27.429v82.287c0,15.148 12.28,27.428 27.429,27.428h82.286c15.149,0 27.429-12.28 27.429-27.428v-82.287c0-15.148-12.28-27.429-27.429-27.429zm13.715,102.859c0,11.361-9.21,20.572-20.572,20.572h-68.572c-11.361,0-20.572-9.21-20.572-20.572v-68.572c0-11.362 9.21-20.572 20.572-20.572h68.572c11.362,0 20.572,9.21 20.572,20.572v68.572zm-13.714-48v-20.572l-13.715,20.572h13.715zm-48.001,41.143l20.572-10.714-20.572-9.858v20.572z"/>
    </g>
  </g>
</svg>
